<?xml version="1.0" encoding="UTF-8" standalone="no"?>
<!DOCTYPE svg PUBLIC "-//W3C//DTD SVG 1.1//EN"
 "http://www.w3.org/Graphics/SVG/1.1/DTD/svg11.dtd">
<!-- Generated by graphviz version 2.40.1 (20161225.0304)
 -->
<!-- Title: us_socialNetwork Pages: 1 -->
<svg width="1328pt" height="386pt"
 viewBox="0.00 0.00 1327.59 386.00" xmlns="http://www.w3.org/2000/svg" xmlns:xlink="http://www.w3.org/1999/xlink">
<g id="graph0" class="graph" transform="scale(1 1) rotate(0) translate(4 382)">
<title>us_socialNetwork</title>
<polygon fill="#ffffff" stroke="transparent" points="-4,4 -4,-382 1323.5871,-382 1323.5871,4 -4,4"/>
<text text-anchor="start" x="477.2935" y="-22.8" font-family="Times,serif" font-size="14.00" fill="#000000">Dependencies between microservices in socialNetwork application</text>
<text text-anchor="middle" x="659.7935" y="-7.8" font-family="Times,serif" font-size="14.00" fill="#000000">An edge means source calls at leas one function in destination</text>
<!-- WriteHomeTimelineService -->
<g id="node1" class="node">
<title>WriteHomeTimelineService</title>
<ellipse fill="none" stroke="#000000" cx="249.7947" cy="-288" rx="111.5806" ry="18"/>
<text text-anchor="middle" x="249.7947" y="-284.3" font-family="Times,serif" font-size="14.00" fill="#000000">WriteHomeTimelineService</text>
</g>
<!-- SocialGraphService -->
<g id="node2" class="node">
<title>SocialGraphService</title>
<ellipse fill="none" stroke="#000000" cx="242.7947" cy="-216" rx="81.4863" ry="18"/>
<text text-anchor="middle" x="242.7947" y="-212.3" font-family="Times,serif" font-size="14.00" fill="#000000">SocialGraphService</text>
</g>
<!-- WriteHomeTimelineService&#45;&gt;SocialGraphService -->
<g id="edge1" class="edge">
<title>WriteHomeTimelineService&#45;&gt;SocialGraphService</title>
<path fill="none" stroke="#000000" d="M248.0283,-269.8314C247.2796,-262.131 246.3894,-252.9743 245.5574,-244.4166"/>
<polygon fill="#000000" stroke="#000000" points="249.0362,-244.0276 244.5849,-234.4133 242.069,-244.7051 249.0362,-244.0276"/>
</g>
<!-- UserService -->
<g id="node3" class="node">
<title>UserService</title>
<ellipse fill="none" stroke="#000000" cx="595.7947" cy="-144" rx="53.8905" ry="18"/>
<text text-anchor="middle" x="595.7947" y="-140.3" font-family="Times,serif" font-size="14.00" fill="#000000">UserService</text>
</g>
<!-- SocialGraphService&#45;&gt;UserService -->
<g id="edge3" class="edge">
<title>SocialGraphService&#45;&gt;UserService</title>
<path fill="none" stroke="#000000" d="M300.1936,-203.2108C365.8616,-189.4019 472.6161,-167.6503 538.3187,-154.7094"/>
<polygon fill="#000000" stroke="#000000" points="539.3602,-158.0718 548.4985,-152.7106 538.0115,-151.2029 539.3602,-158.0718"/>
</g>
<!-- social&#45;graph&#45;redis -->
<g id="node13" class="node">
<title>social&#45;graph&#45;redis</title>
<ellipse fill="none" stroke="#ffa500" cx="151.7947" cy="-144" rx="74.187" ry="18"/>
<text text-anchor="middle" x="151.7947" y="-140.3" font-family="Times,serif" font-size="14.00" fill="#000000">social&#45;graph&#45;redis</text>
</g>
<!-- SocialGraphService&#45;&gt;social&#45;graph&#45;redis -->
<g id="edge16" class="edge">
<title>SocialGraphService&#45;&gt;social&#45;graph&#45;redis</title>
<path fill="none" stroke="#000000" d="M220.7661,-198.5708C209.0295,-189.2847 194.4237,-177.7285 181.6784,-167.6442"/>
<polygon fill="#000000" stroke="#000000" points="183.6343,-164.7288 173.6204,-161.2687 179.2909,-170.2183 183.6343,-164.7288"/>
</g>
<!-- social&#45;graph&#45;mongodb -->
<g id="node17" class="node">
<title>social&#45;graph&#45;mongodb</title>
<ellipse fill="none" stroke="#00ff00" cx="334.7947" cy="-144" rx="90.9839" ry="18"/>
<text text-anchor="middle" x="334.7947" y="-140.3" font-family="Times,serif" font-size="14.00" fill="#000000">social&#45;graph&#45;mongodb</text>
</g>
<!-- SocialGraphService&#45;&gt;social&#45;graph&#45;mongodb -->
<g id="edge21" class="edge">
<title>SocialGraphService&#45;&gt;social&#45;graph&#45;mongodb</title>
<path fill="none" stroke="#000000" d="M265.0653,-198.5708C276.8436,-189.353 291.4802,-177.8983 304.2981,-167.8669"/>
<polygon fill="#000000" stroke="#000000" points="306.6923,-170.4376 312.4103,-161.5182 302.3781,-164.9251 306.6923,-170.4376"/>
</g>
<!-- UserService&#45;&gt;SocialGraphService -->
<g id="edge2" class="edge">
<title>UserService&#45;&gt;SocialGraphService</title>
<path fill="none" stroke="#000000" d="M551.049,-154.1189C491.6024,-166.7149 386.0654,-188.2792 315.2214,-202.3346"/>
<polygon fill="#000000" stroke="#000000" points="314.1603,-198.9767 305.0303,-204.3519 315.5197,-205.8434 314.1603,-198.9767"/>
</g>
<!-- user&#45;mongodb -->
<g id="node16" class="node">
<title>user&#45;mongodb</title>
<ellipse fill="none" stroke="#00ff00" cx="771.7947" cy="-72" rx="61.99" ry="18"/>
<text text-anchor="middle" x="771.7947" y="-68.3" font-family="Times,serif" font-size="14.00" fill="#000000">user&#45;mongodb</text>
</g>
<!-- UserService&#45;&gt;user&#45;mongodb -->
<g id="edge20" class="edge">
<title>UserService&#45;&gt;user&#45;mongodb</title>
<path fill="none" stroke="#000000" d="M630.1471,-129.9468C657.5886,-118.7207 696.285,-102.8903 726.2993,-90.6118"/>
<polygon fill="#000000" stroke="#000000" points="727.7836,-93.7861 735.7139,-86.7603 725.1332,-87.3073 727.7836,-93.7861"/>
</g>
<!-- ComposePostService -->
<g id="node4" class="node">
<title>ComposePostService</title>
<ellipse fill="none" stroke="#000000" cx="790.7947" cy="-360" rx="85.5853" ry="18"/>
<text text-anchor="middle" x="790.7947" y="-356.3" font-family="Times,serif" font-size="14.00" fill="#000000">ComposePostService</text>
</g>
<!-- ComposePostService&#45;&gt;UserService -->
<g id="edge5" class="edge">
<title>ComposePostService&#45;&gt;UserService</title>
<path fill="none" stroke="#000000" d="M854.7942,-347.8915C927.3188,-333.9394 1036.4894,-312.1418 1043.7947,-306 1081.8367,-274.0167 1105.9026,-235.0674 1072.7947,-198 1059.1597,-182.7344 785.4841,-159.0931 658.9547,-148.9246"/>
<polygon fill="#000000" stroke="#000000" points="658.8888,-145.4083 648.6414,-148.0995 658.3304,-152.386 658.8888,-145.4083"/>
</g>
<!-- MediaService -->
<g id="node5" class="node">
<title>MediaService</title>
<ellipse fill="none" stroke="#000000" cx="59.7947" cy="-288" rx="59.5901" ry="18"/>
<text text-anchor="middle" x="59.7947" y="-284.3" font-family="Times,serif" font-size="14.00" fill="#000000">MediaService</text>
</g>
<!-- ComposePostService&#45;&gt;MediaService -->
<g id="edge4" class="edge">
<title>ComposePostService&#45;&gt;MediaService</title>
<path fill="none" stroke="#000000" d="M705.5616,-357.7766C578.9331,-353.4083 333.993,-340.8619 128.7947,-306 123.6628,-305.1281 118.3553,-304.0571 113.0683,-302.8758"/>
<polygon fill="#000000" stroke="#000000" points="113.5149,-299.385 102.978,-300.4917 111.9052,-306.1974 113.5149,-299.385"/>
</g>
<!-- UserTimelineService -->
<g id="node6" class="node">
<title>UserTimelineService</title>
<ellipse fill="none" stroke="#000000" cx="790.7947" cy="-288" rx="85.5853" ry="18"/>
<text text-anchor="middle" x="790.7947" y="-284.3" font-family="Times,serif" font-size="14.00" fill="#000000">UserTimelineService</text>
</g>
<!-- ComposePostService&#45;&gt;UserTimelineService -->
<g id="edge6" class="edge">
<title>ComposePostService&#45;&gt;UserTimelineService</title>
<path fill="none" stroke="#000000" d="M790.7947,-341.8314C790.7947,-334.131 790.7947,-324.9743 790.7947,-316.4166"/>
<polygon fill="#000000" stroke="#000000" points="794.2948,-316.4132 790.7947,-306.4133 787.2948,-316.4133 794.2948,-316.4132"/>
</g>
<!-- PostStorageService -->
<g id="node7" class="node">
<title>PostStorageService</title>
<ellipse fill="none" stroke="#000000" cx="604.7947" cy="-216" rx="79.0865" ry="18"/>
<text text-anchor="middle" x="604.7947" y="-212.3" font-family="Times,serif" font-size="14.00" fill="#000000">PostStorageService</text>
</g>
<!-- ComposePostService&#45;&gt;PostStorageService -->
<g id="edge7" class="edge">
<title>ComposePostService&#45;&gt;PostStorageService</title>
<path fill="none" stroke="#000000" d="M756.4737,-343.3009C737.7892,-333.531 714.6965,-320.3208 695.7947,-306 670.266,-286.6584 644.6359,-260.5651 627.1118,-241.455"/>
<polygon fill="#000000" stroke="#000000" points="629.6584,-239.0529 620.3516,-233.9898 624.4697,-243.7515 629.6584,-239.0529"/>
</g>
<!-- HomeTimelineService -->
<g id="node8" class="node">
<title>HomeTimelineService</title>
<ellipse fill="none" stroke="#000000" cx="520.7947" cy="-288" rx="90.9839" ry="18"/>
<text text-anchor="middle" x="520.7947" y="-284.3" font-family="Times,serif" font-size="14.00" fill="#000000">HomeTimelineService</text>
</g>
<!-- ComposePostService&#45;&gt;HomeTimelineService -->
<g id="edge8" class="edge">
<title>ComposePostService&#45;&gt;HomeTimelineService</title>
<path fill="none" stroke="#000000" d="M737.4514,-345.7751C693.6904,-334.1055 631.5931,-317.5462 585.0898,-305.1454"/>
<polygon fill="#000000" stroke="#000000" points="585.9796,-301.7604 575.4154,-302.5655 584.176,-308.5241 585.9796,-301.7604"/>
</g>
<!-- UniqueIdService -->
<g id="node9" class="node">
<title>UniqueIdService</title>
<ellipse fill="none" stroke="#000000" cx="964.7947" cy="-288" rx="70.3881" ry="18"/>
<text text-anchor="middle" x="964.7947" y="-284.3" font-family="Times,serif" font-size="14.00" fill="#000000">UniqueIdService</text>
</g>
<!-- ComposePostService&#45;&gt;UniqueIdService -->
<g id="edge9" class="edge">
<title>ComposePostService&#45;&gt;UniqueIdService</title>
<path fill="none" stroke="#000000" d="M829.8437,-343.8418C856.0155,-333.0121 890.6067,-318.6985 918.2151,-307.2743"/>
<polygon fill="#000000" stroke="#000000" points="919.7622,-310.422 927.6641,-303.3644 917.0857,-303.9539 919.7622,-310.422"/>
</g>
<!-- TextService -->
<g id="node10" class="node">
<title>TextService</title>
<ellipse fill="none" stroke="#000000" cx="1172.7947" cy="-288" rx="53.0913" ry="18"/>
<text text-anchor="middle" x="1172.7947" y="-284.3" font-family="Times,serif" font-size="14.00" fill="#000000">TextService</text>
</g>
<!-- ComposePostService&#45;&gt;TextService -->
<g id="edge10" class="edge">
<title>ComposePostService&#45;&gt;TextService</title>
<path fill="none" stroke="#000000" d="M854.1195,-347.773C864.6886,-345.7979 875.5455,-343.8092 885.7947,-342 983.3644,-324.7764 1008.9415,-326.8795 1105.7947,-306 1111.093,-304.8578 1116.5988,-303.561 1122.0755,-302.1992"/>
<polygon fill="#000000" stroke="#000000" points="1123.0312,-305.5675 1131.851,-299.6971 1121.2954,-298.7861 1123.0312,-305.5675"/>
</g>
<!-- UserTimelineService&#45;&gt;PostStorageService -->
<g id="edge13" class="edge">
<title>UserTimelineService&#45;&gt;PostStorageService</title>
<path fill="none" stroke="#000000" d="M749.5153,-272.0209C721.4123,-261.1423 684.0703,-246.6873 654.3576,-235.1856"/>
<polygon fill="#000000" stroke="#000000" points="655.5892,-231.9094 645,-231.5634 653.0622,-238.4373 655.5892,-231.9094"/>
</g>
<!-- user&#45;timeline&#45;redis -->
<g id="node14" class="node">
<title>user&#45;timeline&#45;redis</title>
<ellipse fill="none" stroke="#ffa500" cx="986.7947" cy="-216" rx="77.1866" ry="18"/>
<text text-anchor="middle" x="986.7947" y="-212.3" font-family="Times,serif" font-size="14.00" fill="#000000">user&#45;timeline&#45;redis</text>
</g>
<!-- UserTimelineService&#45;&gt;user&#45;timeline&#45;redis -->
<g id="edge17" class="edge">
<title>UserTimelineService&#45;&gt;user&#45;timeline&#45;redis</title>
<path fill="none" stroke="#000000" d="M833.8077,-272.1993C863.8318,-261.17 904.0368,-246.4009 935.696,-234.7709"/>
<polygon fill="#000000" stroke="#000000" points="937.0464,-238.0036 945.2263,-231.27 934.6327,-231.4329 937.0464,-238.0036"/>
</g>
<!-- user&#45;timeline&#45;mongodb -->
<g id="node18" class="node">
<title>user&#45;timeline&#45;mongodb</title>
<ellipse fill="none" stroke="#00ff00" cx="796.7947" cy="-216" rx="94.4839" ry="18"/>
<text text-anchor="middle" x="796.7947" y="-212.3" font-family="Times,serif" font-size="14.00" fill="#000000">user&#45;timeline&#45;mongodb</text>
</g>
<!-- UserTimelineService&#45;&gt;user&#45;timeline&#45;mongodb -->
<g id="edge22" class="edge">
<title>UserTimelineService&#45;&gt;user&#45;timeline&#45;mongodb</title>
<path fill="none" stroke="#000000" d="M792.3087,-269.8314C792.9504,-262.131 793.7135,-252.9743 794.4266,-244.4166"/>
<polygon fill="#000000" stroke="#000000" points="797.9176,-244.6694 795.2603,-234.4133 790.9418,-244.088 797.9176,-244.6694"/>
</g>
<!-- HomeTimelineService&#45;&gt;SocialGraphService -->
<g id="edge14" class="edge">
<title>HomeTimelineService&#45;&gt;SocialGraphService</title>
<path fill="none" stroke="#000000" d="M465.5385,-273.689C419.563,-261.7817 354.1004,-244.8274 306.0374,-232.3794"/>
<polygon fill="#000000" stroke="#000000" points="306.6168,-228.914 296.0586,-229.795 304.8617,-235.6905 306.6168,-228.914"/>
</g>
<!-- HomeTimelineService&#45;&gt;PostStorageService -->
<g id="edge15" class="edge">
<title>HomeTimelineService&#45;&gt;PostStorageService</title>
<path fill="none" stroke="#000000" d="M541.5587,-270.2022C552.1378,-261.1345 565.1562,-249.9758 576.6256,-240.1449"/>
<polygon fill="#000000" stroke="#000000" points="578.9547,-242.7584 584.2695,-233.593 574.3991,-237.4436 578.9547,-242.7584"/>
</g>
<!-- home&#45;timeline&#45;redis -->
<g id="node15" class="node">
<title>home&#45;timeline&#45;redis</title>
<ellipse fill="none" stroke="#ffa500" cx="424.7947" cy="-216" rx="83.3857" ry="18"/>
<text text-anchor="middle" x="424.7947" y="-212.3" font-family="Times,serif" font-size="14.00" fill="#000000">home&#45;timeline&#45;redis</text>
</g>
<!-- HomeTimelineService&#45;&gt;home&#45;timeline&#45;redis -->
<g id="edge18" class="edge">
<title>HomeTimelineService&#45;&gt;home&#45;timeline&#45;redis</title>
<path fill="none" stroke="#000000" d="M497.5558,-270.5708C485.1483,-261.2652 469.7012,-249.6799 456.2356,-239.5807"/>
<polygon fill="#000000" stroke="#000000" points="458.2524,-236.7183 448.1523,-233.5182 454.0524,-242.3183 458.2524,-236.7183"/>
</g>
<!-- UrlShortenService -->
<g id="node11" class="node">
<title>UrlShortenService</title>
<ellipse fill="none" stroke="#000000" cx="1233.7947" cy="-216" rx="76.0865" ry="18"/>
<text text-anchor="middle" x="1233.7947" y="-212.3" font-family="Times,serif" font-size="14.00" fill="#000000">UrlShortenService</text>
</g>
<!-- TextService&#45;&gt;UrlShortenService -->
<g id="edge11" class="edge">
<title>TextService&#45;&gt;UrlShortenService</title>
<path fill="none" stroke="#000000" d="M1187.5611,-270.5708C1194.9437,-261.857 1204.0198,-251.1441 1212.1698,-241.5244"/>
<polygon fill="#000000" stroke="#000000" points="1214.9468,-243.6612 1218.7405,-233.7689 1209.6058,-239.1363 1214.9468,-243.6612"/>
</g>
<!-- UserMentionService -->
<g id="node12" class="node">
<title>UserMentionService</title>
<ellipse fill="none" stroke="#000000" cx="947.7947" cy="-144" rx="83.6854" ry="18"/>
<text text-anchor="middle" x="947.7947" y="-140.3" font-family="Times,serif" font-size="14.00" fill="#000000">UserMentionService</text>
</g>
<!-- TextService&#45;&gt;UserMentionService -->
<g id="edge12" class="edge">
<title>TextService&#45;&gt;UserMentionService</title>
<path fill="none" stroke="#000000" d="M1163.8598,-270.2425C1152.8274,-250.0164 1132.2358,-217.2823 1105.7947,-198 1080.5481,-179.5887 1048.5502,-167.1082 1019.9624,-158.8282"/>
<polygon fill="#000000" stroke="#000000" points="1020.5808,-155.3678 1010.0094,-156.0718 1018.7125,-162.1139 1020.5808,-155.3678"/>
</g>
<!-- url&#45;shorten&#45;mongodb -->
<g id="node19" class="node">
<title>url&#45;shorten&#45;mongodb</title>
<ellipse fill="none" stroke="#00ff00" cx="1233.7947" cy="-144" rx="85.5853" ry="18"/>
<text text-anchor="middle" x="1233.7947" y="-140.3" font-family="Times,serif" font-size="14.00" fill="#000000">url&#45;shorten&#45;mongodb</text>
</g>
<!-- UrlShortenService&#45;&gt;url&#45;shorten&#45;mongodb -->
<g id="edge23" class="edge">
<title>UrlShortenService&#45;&gt;url&#45;shorten&#45;mongodb</title>
<path fill="none" stroke="#000000" d="M1233.7947,-197.8314C1233.7947,-190.131 1233.7947,-180.9743 1233.7947,-172.4166"/>
<polygon fill="#000000" stroke="#000000" points="1237.2948,-172.4132 1233.7947,-162.4133 1230.2948,-172.4133 1237.2948,-172.4132"/>
</g>
<!-- UserMentionService&#45;&gt;user&#45;mongodb -->
<g id="edge19" class="edge">
<title>UserMentionService&#45;&gt;user&#45;mongodb</title>
<path fill="none" stroke="#000000" d="M908.7346,-128.0209C881.6207,-116.9288 845.4182,-102.1187 817.0463,-90.512"/>
<polygon fill="#000000" stroke="#000000" points="818.3299,-87.2556 807.7492,-86.7087 815.6795,-93.7345 818.3299,-87.2556"/>
</g>
<!-- PostStorageSerivce -->
<g id="node20" class="node">
<title>PostStorageSerivce</title>
<ellipse fill="none" stroke="#000000" cx="973.7947" cy="-360" rx="79.0865" ry="18"/>
<text text-anchor="middle" x="973.7947" y="-356.3" font-family="Times,serif" font-size="14.00" fill="#000000">PostStorageSerivce</text>
</g>
</g>
</svg>
