<?xml version="1.0" encoding="UTF-8" standalone="no"?>
<!DOCTYPE svg PUBLIC "-//W3C//DTD SVG 1.1//EN"
 "http://www.w3.org/Graphics/SVG/1.1/DTD/svg11.dtd">
<!-- Generated by graphviz version 2.40.1 (20161225.0304)
 -->
<!-- Title: us_socialNetwork Pages: 1 -->
<svg width="1425pt" height="401pt"
 viewBox="0.00 0.00 1425.47 401.00" xmlns="http://www.w3.org/2000/svg" xmlns:xlink="http://www.w3.org/1999/xlink">
<g id="graph0" class="graph" transform="scale(1 1) rotate(0) translate(4 397)">
<title>us_socialNetwork</title>
<polygon fill="#ffffff" stroke="transparent" points="-4,4 -4,-397 1421.4656,-397 1421.4656,4 -4,4"/>
<text text-anchor="start" x="516.7328" y="-37.8" font-family="Times,serif" font-size="14.00" fill="#000000">Dependencies between microservices in socialNetwork application</text>
<text text-anchor="start" x="516.7328" y="-22.8" font-family="Times,serif" font-size="14.00" fill="#000000">An edge means source calls at leas one function in destination</text>
<text text-anchor="middle" x="708.7328" y="-7.8" font-family="Times,serif" font-size="14.00" fill="#000000">Green nodes are mongodb instances, Orange nodes are redis instances</text>
<!-- WriteHomeTimelineService -->
<g id="node1" class="node">
<title>WriteHomeTimelineService</title>
<ellipse fill="none" stroke="#000000" cx="523.8426" cy="-303" rx="111.5806" ry="18"/>
<text text-anchor="middle" x="523.8426" y="-299.3" font-family="Times,serif" font-size="14.00" fill="#000000">WriteHomeTimelineService</text>
</g>
<!-- SocialGraphService -->
<g id="node2" class="node">
<title>SocialGraphService</title>
<ellipse fill="none" stroke="#000000" cx="571.8426" cy="-231" rx="81.4863" ry="18"/>
<text text-anchor="middle" x="571.8426" y="-227.3" font-family="Times,serif" font-size="14.00" fill="#000000">SocialGraphService</text>
</g>
<!-- WriteHomeTimelineService&#45;&gt;SocialGraphService -->
<g id="edge1" class="edge">
<title>WriteHomeTimelineService&#45;&gt;SocialGraphService</title>
<path fill="none" stroke="#000000" d="M535.955,-284.8314C541.5113,-276.497 548.2048,-266.4567 554.2984,-257.3162"/>
<polygon fill="#000000" stroke="#000000" points="557.2654,-259.1754 559.9003,-248.9134 551.4411,-255.2925 557.2654,-259.1754"/>
</g>
<!-- UserService -->
<g id="node3" class="node">
<title>UserService</title>
<ellipse fill="none" stroke="#000000" cx="795.8426" cy="-159" rx="53.8905" ry="18"/>
<text text-anchor="middle" x="795.8426" y="-155.3" font-family="Times,serif" font-size="14.00" fill="#000000">UserService</text>
</g>
<!-- SocialGraphService&#45;&gt;UserService -->
<g id="edge3" class="edge">
<title>SocialGraphService&#45;&gt;UserService</title>
<path fill="none" stroke="#000000" d="M614.2389,-215.5542C651.3824,-203.1362 705.3167,-185.8111 744.8091,-173.6181"/>
<polygon fill="#000000" stroke="#000000" points="745.9882,-176.9174 754.5194,-170.6349 743.9324,-170.2261 745.9882,-176.9174"/>
</g>
<!-- social&#45;graph&#45;redis -->
<g id="node13" class="node">
<title>social&#45;graph&#45;redis</title>
<ellipse fill="none" stroke="#ffa500" cx="449.8426" cy="-159" rx="74.187" ry="18"/>
<text text-anchor="middle" x="449.8426" y="-155.3" font-family="Times,serif" font-size="14.00" fill="#000000">social&#45;graph&#45;redis</text>
</g>
<!-- SocialGraphService&#45;&gt;social&#45;graph&#45;redis -->
<g id="edge16" class="edge">
<title>SocialGraphService&#45;&gt;social&#45;graph&#45;redis</title>
<path fill="none" stroke="#000000" d="M543.239,-214.1192C526.5661,-204.2794 505.3443,-191.7551 487.3447,-181.1324"/>
<polygon fill="#000000" stroke="#000000" points="488.6579,-177.8434 478.2669,-175.775 485.1001,-183.8719 488.6579,-177.8434"/>
</g>
<!-- social&#45;graph&#45;mongodb -->
<g id="node17" class="node">
<title>social&#45;graph&#45;mongodb</title>
<ellipse fill="none" stroke="#00ff00" cx="632.8426" cy="-159" rx="90.9839" ry="18"/>
<text text-anchor="middle" x="632.8426" y="-155.3" font-family="Times,serif" font-size="14.00" fill="#000000">social&#45;graph&#45;mongodb</text>
</g>
<!-- SocialGraphService&#45;&gt;social&#45;graph&#45;mongodb -->
<g id="edge21" class="edge">
<title>SocialGraphService&#45;&gt;social&#45;graph&#45;mongodb</title>
<path fill="none" stroke="#000000" d="M586.9212,-213.2022C594.253,-204.5483 603.1983,-193.99 611.2394,-184.4988"/>
<polygon fill="#000000" stroke="#000000" points="613.9322,-186.7349 617.726,-176.8425 608.5913,-182.2099 613.9322,-186.7349"/>
</g>
<!-- UserService&#45;&gt;SocialGraphService -->
<g id="edge2" class="edge">
<title>UserService&#45;&gt;SocialGraphService</title>
<path fill="none" stroke="#000000" d="M759.4497,-172.4322C724.7944,-184.0965 672.1801,-201.0581 631.4357,-213.7292"/>
<polygon fill="#000000" stroke="#000000" points="630.3972,-210.3868 621.8806,-216.689 632.4685,-217.0733 630.3972,-210.3868"/>
</g>
<!-- user&#45;mongodb -->
<g id="node16" class="node">
<title>user&#45;mongodb</title>
<ellipse fill="none" stroke="#00ff00" cx="439.8426" cy="-87" rx="61.99" ry="18"/>
<text text-anchor="middle" x="439.8426" y="-83.3" font-family="Times,serif" font-size="14.00" fill="#000000">user&#45;mongodb</text>
</g>
<!-- UserService&#45;&gt;user&#45;mongodb -->
<g id="edge20" class="edge">
<title>UserService&#45;&gt;user&#45;mongodb</title>
<path fill="none" stroke="#000000" d="M755.663,-146.8979C748.1142,-144.8015 740.2627,-142.7396 732.8426,-141 654.8888,-122.7248 564.0797,-106.8068 504.4634,-97.0772"/>
<polygon fill="#000000" stroke="#000000" points="504.8699,-93.5975 494.4385,-95.4515 503.7493,-100.5072 504.8699,-93.5975"/>
</g>
<!-- ComposePostService -->
<g id="node4" class="node">
<title>ComposePostService</title>
<ellipse fill="none" stroke="#000000" cx="1021.8426" cy="-375" rx="85.5853" ry="18"/>
<text text-anchor="middle" x="1021.8426" y="-371.3" font-family="Times,serif" font-size="14.00" fill="#000000">ComposePostService</text>
</g>
<!-- ComposePostService&#45;&gt;UserService -->
<g id="edge6" class="edge">
<title>ComposePostService&#45;&gt;UserService</title>
<path fill="none" stroke="#000000" d="M1105.7908,-370.9649C1194.9678,-365.1322 1328.5486,-351.4862 1368.8426,-321 1408.8681,-290.7169 1435.7212,-250.0317 1401.8426,-213 1365.8113,-173.6152 1008.8214,-162.7593 860.2247,-159.9349"/>
<polygon fill="#000000" stroke="#000000" points="859.9558,-156.4294 849.8932,-159.7451 859.8272,-163.4283 859.9558,-156.4294"/>
</g>
<!-- UniqueIdService -->
<g id="node5" class="node">
<title>UniqueIdService</title>
<ellipse fill="none" stroke="#000000" cx="923.8426" cy="-303" rx="70.3881" ry="18"/>
<text text-anchor="middle" x="923.8426" y="-299.3" font-family="Times,serif" font-size="14.00" fill="#000000">UniqueIdService</text>
</g>
<!-- ComposePostService&#45;&gt;UniqueIdService -->
<g id="edge4" class="edge">
<title>ComposePostService&#45;&gt;UniqueIdService</title>
<path fill="none" stroke="#000000" d="M998.1195,-357.5708C985.2659,-348.1273 969.2167,-336.3361 955.3289,-326.1328"/>
<polygon fill="#000000" stroke="#000000" points="957.1401,-323.1204 947.009,-320.0202 952.9956,-328.7616 957.1401,-323.1204"/>
</g>
<!-- PostStorageService -->
<g id="node6" class="node">
<title>PostStorageService</title>
<ellipse fill="none" stroke="#000000" cx="933.8426" cy="-231" rx="79.0865" ry="18"/>
<text text-anchor="middle" x="933.8426" y="-227.3" font-family="Times,serif" font-size="14.00" fill="#000000">PostStorageService</text>
</g>
<!-- ComposePostService&#45;&gt;PostStorageService -->
<g id="edge5" class="edge">
<title>ComposePostService&#45;&gt;PostStorageService</title>
<path fill="none" stroke="#000000" d="M1021.5936,-356.7429C1020.5498,-337.5367 1016.6121,-307.09 1002.8426,-285 995.202,-272.7425 983.7367,-262.1488 972.3351,-253.6711"/>
<polygon fill="#000000" stroke="#000000" points="974.2927,-250.769 964.0998,-247.8784 970.2654,-256.4944 974.2927,-250.769"/>
</g>
<!-- TextService -->
<g id="node7" class="node">
<title>TextService</title>
<ellipse fill="none" stroke="#000000" cx="271.8426" cy="-303" rx="53.0913" ry="18"/>
<text text-anchor="middle" x="271.8426" y="-299.3" font-family="Times,serif" font-size="14.00" fill="#000000">TextService</text>
</g>
<!-- ComposePostService&#45;&gt;TextService -->
<g id="edge7" class="edge">
<title>ComposePostService&#45;&gt;TextService</title>
<path fill="none" stroke="#000000" d="M940.601,-369.2021C822.1725,-360.458 595.2669,-342.5999 402.8426,-321 379.2012,-318.3462 353.2338,-314.8914 330.6975,-311.7189"/>
<polygon fill="#000000" stroke="#000000" points="330.998,-308.2266 320.6051,-310.2851 330.0133,-315.157 330.998,-308.2266"/>
</g>
<!-- HomeTimelineService -->
<g id="node8" class="node">
<title>HomeTimelineService</title>
<ellipse fill="none" stroke="#000000" cx="744.8426" cy="-303" rx="90.9839" ry="18"/>
<text text-anchor="middle" x="744.8426" y="-299.3" font-family="Times,serif" font-size="14.00" fill="#000000">HomeTimelineService</text>
</g>
<!-- ComposePostService&#45;&gt;HomeTimelineService -->
<g id="edge8" class="edge">
<title>ComposePostService&#45;&gt;HomeTimelineService</title>
<path fill="none" stroke="#000000" d="M967.7766,-360.9468C922.5562,-349.1927 857.9171,-332.3912 809.8754,-319.9039"/>
<polygon fill="#000000" stroke="#000000" points="810.7532,-316.5158 800.1943,-317.3874 808.9922,-323.2906 810.7532,-316.5158"/>
</g>
<!-- UserTimelineService -->
<g id="node9" class="node">
<title>UserTimelineService</title>
<ellipse fill="none" stroke="#000000" cx="1135.8426" cy="-303" rx="85.5853" ry="18"/>
<text text-anchor="middle" x="1135.8426" y="-299.3" font-family="Times,serif" font-size="14.00" fill="#000000">UserTimelineService</text>
</g>
<!-- ComposePostService&#45;&gt;UserTimelineService -->
<g id="edge9" class="edge">
<title>ComposePostService&#45;&gt;UserTimelineService</title>
<path fill="none" stroke="#000000" d="M1049.1484,-357.7542C1064.3769,-348.1362 1083.5287,-336.0403 1099.9559,-325.6653"/>
<polygon fill="#000000" stroke="#000000" points="1102.1736,-328.4043 1108.7595,-320.1051 1098.4356,-322.4858 1102.1736,-328.4043"/>
</g>
<!-- MediaService -->
<g id="node10" class="node">
<title>MediaService</title>
<ellipse fill="none" stroke="#000000" cx="1299.8426" cy="-303" rx="59.5901" ry="18"/>
<text text-anchor="middle" x="1299.8426" y="-299.3" font-family="Times,serif" font-size="14.00" fill="#000000">MediaService</text>
</g>
<!-- ComposePostService&#45;&gt;MediaService -->
<g id="edge10" class="edge">
<title>ComposePostService&#45;&gt;MediaService</title>
<path fill="none" stroke="#000000" d="M1076.4186,-360.9362C1118.5948,-350.0588 1178.427,-334.6082 1230.8426,-321 1235.396,-319.8178 1240.118,-318.59 1244.8582,-317.3561"/>
<polygon fill="#000000" stroke="#000000" points="1245.7704,-320.7354 1254.5652,-314.8276 1244.0059,-313.9614 1245.7704,-320.7354"/>
</g>
<!-- UserMentionService -->
<g id="node11" class="node">
<title>UserMentionService</title>
<ellipse fill="none" stroke="#000000" cx="83.8426" cy="-159" rx="83.6854" ry="18"/>
<text text-anchor="middle" x="83.8426" y="-155.3" font-family="Times,serif" font-size="14.00" fill="#000000">UserMentionService</text>
</g>
<!-- TextService&#45;&gt;UserMentionService -->
<g id="edge11" class="edge">
<title>TextService&#45;&gt;UserMentionService</title>
<path fill="none" stroke="#000000" d="M244.7283,-287.2247C227.6799,-276.9559 205.4647,-262.9246 186.8426,-249 159.4761,-228.5369 130.3313,-202.6421 110.0541,-183.8876"/>
<polygon fill="#000000" stroke="#000000" points="112.1757,-181.0806 102.4728,-176.8258 107.4045,-186.2028 112.1757,-181.0806"/>
</g>
<!-- UrlShortenService -->
<g id="node12" class="node">
<title>UrlShortenService</title>
<ellipse fill="none" stroke="#000000" cx="271.8426" cy="-231" rx="76.0865" ry="18"/>
<text text-anchor="middle" x="271.8426" y="-227.3" font-family="Times,serif" font-size="14.00" fill="#000000">UrlShortenService</text>
</g>
<!-- TextService&#45;&gt;UrlShortenService -->
<g id="edge12" class="edge">
<title>TextService&#45;&gt;UrlShortenService</title>
<path fill="none" stroke="#000000" d="M271.8426,-284.8314C271.8426,-277.131 271.8426,-267.9743 271.8426,-259.4166"/>
<polygon fill="#000000" stroke="#000000" points="275.3427,-259.4132 271.8426,-249.4133 268.3427,-259.4133 275.3427,-259.4132"/>
</g>
<!-- HomeTimelineService&#45;&gt;SocialGraphService -->
<g id="edge14" class="edge">
<title>HomeTimelineService&#45;&gt;SocialGraphService</title>
<path fill="none" stroke="#000000" d="M705.5862,-286.6621C679.9922,-276.0103 646.4383,-262.0456 619.3421,-250.7686"/>
<polygon fill="#000000" stroke="#000000" points="620.628,-247.5128 610.0508,-246.9017 617.9383,-253.9754 620.628,-247.5128"/>
</g>
<!-- HomeTimelineService&#45;&gt;PostStorageService -->
<g id="edge15" class="edge">
<title>HomeTimelineService&#45;&gt;PostStorageService</title>
<path fill="none" stroke="#000000" d="M786.7878,-287.0209C815.3441,-276.1423 853.2883,-261.6873 883.4803,-250.1856"/>
<polygon fill="#000000" stroke="#000000" points="884.8899,-253.3941 892.9888,-246.5634 882.3979,-246.8527 884.8899,-253.3941"/>
</g>
<!-- home&#45;timeline&#45;redis -->
<g id="node15" class="node">
<title>home&#45;timeline&#45;redis</title>
<ellipse fill="none" stroke="#ffa500" cx="753.8426" cy="-231" rx="83.3857" ry="18"/>
<text text-anchor="middle" x="753.8426" y="-227.3" font-family="Times,serif" font-size="14.00" fill="#000000">home&#45;timeline&#45;redis</text>
</g>
<!-- HomeTimelineService&#45;&gt;home&#45;timeline&#45;redis -->
<g id="edge18" class="edge">
<title>HomeTimelineService&#45;&gt;home&#45;timeline&#45;redis</title>
<path fill="none" stroke="#000000" d="M747.1136,-284.8314C748.0762,-277.131 749.2208,-267.9743 750.2905,-259.4166"/>
<polygon fill="#000000" stroke="#000000" points="753.7734,-259.7702 751.5409,-249.4133 746.8275,-258.9019 753.7734,-259.7702"/>
</g>
<!-- UserTimelineService&#45;&gt;PostStorageService -->
<g id="edge13" class="edge">
<title>UserTimelineService&#45;&gt;PostStorageService</title>
<path fill="none" stroke="#000000" d="M1092.0116,-287.3771C1060.8567,-276.2724 1018.8806,-261.3106 986.0004,-249.5909"/>
<polygon fill="#000000" stroke="#000000" points="987.1431,-246.2826 976.5485,-246.2219 984.7929,-252.8763 987.1431,-246.2826"/>
</g>
<!-- user&#45;timeline&#45;redis -->
<g id="node14" class="node">
<title>user&#45;timeline&#45;redis</title>
<ellipse fill="none" stroke="#ffa500" cx="1315.8426" cy="-231" rx="77.1866" ry="18"/>
<text text-anchor="middle" x="1315.8426" y="-227.3" font-family="Times,serif" font-size="14.00" fill="#000000">user&#45;timeline&#45;redis</text>
</g>
<!-- UserTimelineService&#45;&gt;user&#45;timeline&#45;redis -->
<g id="edge17" class="edge">
<title>UserTimelineService&#45;&gt;user&#45;timeline&#45;redis</title>
<path fill="none" stroke="#000000" d="M1175.7904,-287.0209C1202.8691,-276.1894 1238.8115,-261.8124 1267.5047,-250.3352"/>
<polygon fill="#000000" stroke="#000000" points="1268.9493,-253.527 1276.9342,-246.5634 1266.3495,-247.0277 1268.9493,-253.527"/>
</g>
<!-- user&#45;timeline&#45;mongodb -->
<g id="node18" class="node">
<title>user&#45;timeline&#45;mongodb</title>
<ellipse fill="none" stroke="#00ff00" cx="1125.8426" cy="-231" rx="94.4839" ry="18"/>
<text text-anchor="middle" x="1125.8426" y="-227.3" font-family="Times,serif" font-size="14.00" fill="#000000">user&#45;timeline&#45;mongodb</text>
</g>
<!-- UserTimelineService&#45;&gt;user&#45;timeline&#45;mongodb -->
<g id="edge22" class="edge">
<title>UserTimelineService&#45;&gt;user&#45;timeline&#45;mongodb</title>
<path fill="none" stroke="#000000" d="M1133.3191,-284.8314C1132.2496,-277.131 1130.9779,-267.9743 1129.7893,-259.4166"/>
<polygon fill="#000000" stroke="#000000" points="1133.2425,-258.8367 1128.4,-249.4133 1126.309,-259.7997 1133.2425,-258.8367"/>
</g>
<!-- UserMentionService&#45;&gt;user&#45;mongodb -->
<g id="edge19" class="edge">
<title>UserMentionService&#45;&gt;user&#45;mongodb</title>
<path fill="none" stroke="#000000" d="M145.0411,-146.6228C210.4274,-133.3986 313.4612,-112.5603 378.7909,-99.3475"/>
<polygon fill="#000000" stroke="#000000" points="379.833,-102.7077 388.9407,-97.2948 378.4453,-95.8466 379.833,-102.7077"/>
</g>
<!-- url&#45;shorten&#45;mongodb -->
<g id="node19" class="node">
<title>url&#45;shorten&#45;mongodb</title>
<ellipse fill="none" stroke="#00ff00" cx="271.8426" cy="-159" rx="85.5853" ry="18"/>
<text text-anchor="middle" x="271.8426" y="-155.3" font-family="Times,serif" font-size="14.00" fill="#000000">url&#45;shorten&#45;mongodb</text>
</g>
<!-- UrlShortenService&#45;&gt;url&#45;shorten&#45;mongodb -->
<g id="edge23" class="edge">
<title>UrlShortenService&#45;&gt;url&#45;shorten&#45;mongodb</title>
<path fill="none" stroke="#000000" d="M271.8426,-212.8314C271.8426,-205.131 271.8426,-195.9743 271.8426,-187.4166"/>
<polygon fill="#000000" stroke="#000000" points="275.3427,-187.4132 271.8426,-177.4133 268.3427,-187.4133 275.3427,-187.4132"/>
</g>
</g>
</svg>
