<?xml version="1.0" encoding="UTF-8" standalone="no"?>
<!DOCTYPE svg PUBLIC "-//W3C//DTD SVG 1.1//EN"
 "http://www.w3.org/Graphics/SVG/1.1/DTD/svg11.dtd">
<!-- Generated by graphviz version 2.40.1 (20161225.0304)
 -->
<!-- Title: us_socialNetwork Pages: 1 -->
<svg width="1203pt" height="314pt"
 viewBox="0.00 0.00 1202.55 314.00" xmlns="http://www.w3.org/2000/svg" xmlns:xlink="http://www.w3.org/1999/xlink">
<g id="graph0" class="graph" transform="scale(1 1) rotate(0) translate(4 310)">
<title>us_socialNetwork</title>
<polygon fill="#ffffff" stroke="transparent" points="-4,4 -4,-310 1198.5542,-310 1198.5542,4 -4,4"/>
<text text-anchor="start" x="414.7771" y="-22.8" font-family="Times,serif" font-size="14.00" fill="#000000">Dependencies between microservices in socialNetwork application</text>
<text text-anchor="middle" x="597.2771" y="-7.8" font-family="Times,serif" font-size="14.00" fill="#000000">An edge means source calls at leas one function in destination</text>
<!-- WriteHomeTimelineService -->
<g id="node1" class="node">
<title>WriteHomeTimelineService</title>
<ellipse fill="none" stroke="#000000" cx="111.7901" cy="-216" rx="111.5806" ry="18"/>
<text text-anchor="middle" x="111.7901" y="-212.3" font-family="Times,serif" font-size="14.00" fill="#000000">WriteHomeTimelineService</text>
</g>
<!-- SocialGraphService -->
<g id="node2" class="node">
<title>SocialGraphService</title>
<ellipse fill="none" stroke="#000000" cx="558.7901" cy="-144" rx="81.4863" ry="18"/>
<text text-anchor="middle" x="558.7901" y="-140.3" font-family="Times,serif" font-size="14.00" fill="#000000">SocialGraphService</text>
</g>
<!-- WriteHomeTimelineService&#45;&gt;SocialGraphService -->
<g id="edge1" class="edge">
<title>WriteHomeTimelineService&#45;&gt;SocialGraphService</title>
<path fill="none" stroke="#000000" d="M190.9326,-203.2522C273.2943,-189.9859 401.37,-169.3563 482.6133,-156.2701"/>
<polygon fill="#000000" stroke="#000000" points="483.4572,-159.6794 492.7734,-154.6336 482.344,-152.7684 483.4572,-159.6794"/>
</g>
<!-- UserService -->
<g id="node3" class="node">
<title>UserService</title>
<ellipse fill="none" stroke="#000000" cx="558.7901" cy="-72" rx="53.8905" ry="18"/>
<text text-anchor="middle" x="558.7901" y="-68.3" font-family="Times,serif" font-size="14.00" fill="#000000">UserService</text>
</g>
<!-- SocialGraphService&#45;&gt;UserService -->
<g id="edge3" class="edge">
<title>SocialGraphService&#45;&gt;UserService</title>
<path fill="none" stroke="#000000" d="M552.8377,-125.8314C552.0757,-118.0125 551.8597,-108.6923 552.1896,-100.0221"/>
<polygon fill="#000000" stroke="#000000" points="555.6905,-100.1239 552.8628,-89.9134 548.706,-99.6587 555.6905,-100.1239"/>
</g>
<!-- UserService&#45;&gt;SocialGraphService -->
<g id="edge2" class="edge">
<title>UserService&#45;&gt;SocialGraphService</title>
<path fill="none" stroke="#000000" d="M564.7174,-89.9134C565.4912,-97.6993 565.7192,-107.01 565.4011,-115.6941"/>
<polygon fill="#000000" stroke="#000000" points="561.8983,-115.6254 564.7425,-125.8314 568.8836,-116.0794 561.8983,-115.6254"/>
</g>
<!-- ComposePostService -->
<g id="node4" class="node">
<title>ComposePostService</title>
<ellipse fill="none" stroke="#000000" cx="823.7901" cy="-288" rx="85.5853" ry="18"/>
<text text-anchor="middle" x="823.7901" y="-284.3" font-family="Times,serif" font-size="14.00" fill="#000000">ComposePostService</text>
</g>
<!-- ComposePostService&#45;&gt;UserService -->
<g id="edge9" class="edge">
<title>ComposePostService&#45;&gt;UserService</title>
<path fill="none" stroke="#000000" d="M887.7997,-275.97C958.0526,-262.5422 1063.2529,-241.6892 1080.7901,-234 1140.9782,-207.6105 1226.2088,-174.4354 1181.7901,-126 1144.5355,-85.3766 774.3234,-75.2227 622.8664,-72.7608"/>
<polygon fill="#000000" stroke="#000000" points="622.8331,-69.2599 612.7795,-72.603 622.7235,-76.2591 622.8331,-69.2599"/>
</g>
<!-- MediaService -->
<g id="node5" class="node">
<title>MediaService</title>
<ellipse fill="none" stroke="#000000" cx="301.7901" cy="-216" rx="59.5901" ry="18"/>
<text text-anchor="middle" x="301.7901" y="-212.3" font-family="Times,serif" font-size="14.00" fill="#000000">MediaService</text>
</g>
<!-- ComposePostService&#45;&gt;MediaService -->
<g id="edge4" class="edge">
<title>ComposePostService&#45;&gt;MediaService</title>
<path fill="none" stroke="#000000" d="M743.091,-281.7293C652.0977,-273.8841 499.9765,-258.4319 370.7901,-234 365.7494,-233.0467 360.5328,-231.9304 355.3292,-230.7289"/>
<polygon fill="#000000" stroke="#000000" points="355.9297,-227.2735 345.3881,-228.3336 354.29,-234.0787 355.9297,-227.2735"/>
</g>
<!-- UniqueIdService -->
<g id="node6" class="node">
<title>UniqueIdService</title>
<ellipse fill="none" stroke="#000000" cx="449.7901" cy="-216" rx="70.3881" ry="18"/>
<text text-anchor="middle" x="449.7901" y="-212.3" font-family="Times,serif" font-size="14.00" fill="#000000">UniqueIdService</text>
</g>
<!-- ComposePostService&#45;&gt;UniqueIdService -->
<g id="edge5" class="edge">
<title>ComposePostService&#45;&gt;UniqueIdService</title>
<path fill="none" stroke="#000000" d="M757.143,-276.6425C697.2488,-266.2357 606.9507,-250.0503 528.7901,-234 523.3645,-232.8859 517.739,-231.6886 512.1035,-230.4602"/>
<polygon fill="#000000" stroke="#000000" points="512.5091,-226.9655 501.9896,-228.2266 510.9995,-233.8008 512.5091,-226.9655"/>
</g>
<!-- UserTimelineService -->
<g id="node7" class="node">
<title>UserTimelineService</title>
<ellipse fill="none" stroke="#000000" cx="823.7901" cy="-216" rx="85.5853" ry="18"/>
<text text-anchor="middle" x="823.7901" y="-212.3" font-family="Times,serif" font-size="14.00" fill="#000000">UserTimelineService</text>
</g>
<!-- ComposePostService&#45;&gt;UserTimelineService -->
<g id="edge6" class="edge">
<title>ComposePostService&#45;&gt;UserTimelineService</title>
<path fill="none" stroke="#000000" d="M823.7901,-269.8314C823.7901,-262.131 823.7901,-252.9743 823.7901,-244.4166"/>
<polygon fill="#000000" stroke="#000000" points="827.2902,-244.4132 823.7901,-234.4133 820.2902,-244.4133 827.2902,-244.4132"/>
</g>
<!-- TextService -->
<g id="node8" class="node">
<title>TextService</title>
<ellipse fill="none" stroke="#000000" cx="1018.7901" cy="-216" rx="53.0913" ry="18"/>
<text text-anchor="middle" x="1018.7901" y="-212.3" font-family="Times,serif" font-size="14.00" fill="#000000">TextService</text>
</g>
<!-- ComposePostService&#45;&gt;TextService -->
<g id="edge7" class="edge">
<title>ComposePostService&#45;&gt;TextService</title>
<path fill="none" stroke="#000000" d="M866.5837,-272.1993C898.0802,-260.5698 940.8381,-244.7823 973.0161,-232.9012"/>
<polygon fill="#000000" stroke="#000000" points="974.4699,-236.0954 982.6385,-229.3483 972.0452,-229.5287 974.4699,-236.0954"/>
</g>
<!-- HomeTimelineService -->
<g id="node9" class="node">
<title>HomeTimelineService</title>
<ellipse fill="none" stroke="#000000" cx="628.7901" cy="-216" rx="90.9839" ry="18"/>
<text text-anchor="middle" x="628.7901" y="-212.3" font-family="Times,serif" font-size="14.00" fill="#000000">HomeTimelineService</text>
</g>
<!-- ComposePostService&#45;&gt;HomeTimelineService -->
<g id="edge8" class="edge">
<title>ComposePostService&#45;&gt;HomeTimelineService</title>
<path fill="none" stroke="#000000" d="M780.9965,-272.1993C751.6336,-261.3576 712.4834,-246.9021 681.2423,-235.367"/>
<polygon fill="#000000" stroke="#000000" points="682.4136,-232.0686 671.8203,-231.8881 679.989,-238.6352 682.4136,-232.0686"/>
</g>
<!-- PostStorageService -->
<g id="node10" class="node">
<title>PostStorageService</title>
<ellipse fill="none" stroke="#000000" cx="737.7901" cy="-144" rx="79.0865" ry="18"/>
<text text-anchor="middle" x="737.7901" y="-140.3" font-family="Times,serif" font-size="14.00" fill="#000000">PostStorageService</text>
</g>
<!-- ComposePostService&#45;&gt;PostStorageService -->
<g id="edge10" class="edge">
<title>ComposePostService&#45;&gt;PostStorageService</title>
<path fill="none" stroke="#000000" d="M871.0029,-272.9426C889.2793,-264.5441 908.2952,-252.0374 918.7901,-234 926.8366,-220.1706 928.3507,-210.8294 918.7901,-198 911.5261,-188.2525 851.9493,-171.6795 803.0997,-159.4585"/>
<polygon fill="#000000" stroke="#000000" points="803.7252,-156.0077 793.1768,-156.9983 802.0407,-162.802 803.7252,-156.0077"/>
</g>
<!-- UserTimelineService&#45;&gt;PostStorageService -->
<g id="edge13" class="edge">
<title>UserTimelineService&#45;&gt;PostStorageService</title>
<path fill="none" stroke="#000000" d="M802.5316,-198.2022C791.7007,-189.1345 778.3723,-177.9758 766.6298,-168.1449"/>
<polygon fill="#000000" stroke="#000000" points="768.7184,-165.3288 758.804,-161.593 764.2248,-170.6961 768.7184,-165.3288"/>
</g>
<!-- UrlShortenService -->
<g id="node11" class="node">
<title>UrlShortenService</title>
<ellipse fill="none" stroke="#000000" cx="910.7901" cy="-144" rx="76.0865" ry="18"/>
<text text-anchor="middle" x="910.7901" y="-140.3" font-family="Times,serif" font-size="14.00" fill="#000000">UrlShortenService</text>
</g>
<!-- TextService&#45;&gt;UrlShortenService -->
<g id="edge11" class="edge">
<title>TextService&#45;&gt;UrlShortenService</title>
<path fill="none" stroke="#000000" d="M994.5528,-199.8418C979.965,-190.1166 961.1631,-177.582 945.0699,-166.8532"/>
<polygon fill="#000000" stroke="#000000" points="946.714,-163.7428 936.452,-161.1079 942.831,-169.5672 946.714,-163.7428"/>
</g>
<!-- UserMentionService -->
<g id="node12" class="node">
<title>UserMentionService</title>
<ellipse fill="none" stroke="#000000" cx="1088.7901" cy="-144" rx="83.6854" ry="18"/>
<text text-anchor="middle" x="1088.7901" y="-140.3" font-family="Times,serif" font-size="14.00" fill="#000000">UserMentionService</text>
</g>
<!-- TextService&#45;&gt;UserMentionService -->
<g id="edge12" class="edge">
<title>TextService&#45;&gt;UserMentionService</title>
<path fill="none" stroke="#000000" d="M1035.7351,-198.5708C1044.3764,-189.6827 1055.0396,-178.7148 1064.5345,-168.9486"/>
<polygon fill="#000000" stroke="#000000" points="1067.0535,-171.3786 1071.5148,-161.7689 1062.0345,-166.4991 1067.0535,-171.3786"/>
</g>
<!-- HomeTimelineService&#45;&gt;SocialGraphService -->
<g id="edge14" class="edge">
<title>HomeTimelineService&#45;&gt;SocialGraphService</title>
<path fill="none" stroke="#000000" d="M611.4867,-198.2022C602.989,-189.4617 592.6026,-178.7786 583.3041,-169.2144"/>
<polygon fill="#000000" stroke="#000000" points="585.6173,-166.5727 576.137,-161.8425 580.5983,-171.4523 585.6173,-166.5727"/>
</g>
<!-- HomeTimelineService&#45;&gt;PostStorageService -->
<g id="edge15" class="edge">
<title>HomeTimelineService&#45;&gt;PostStorageService</title>
<path fill="none" stroke="#000000" d="M654.8983,-198.7542C669.4589,-189.1362 687.7707,-177.0403 703.4774,-166.6653"/>
<polygon fill="#000000" stroke="#000000" points="705.48,-169.5371 711.8949,-161.1051 701.6218,-163.6963 705.48,-169.5371"/>
</g>
<!-- PostStorageSerivce -->
<g id="node13" class="node">
<title>PostStorageSerivce</title>
<ellipse fill="none" stroke="#000000" cx="1006.7901" cy="-288" rx="79.0865" ry="18"/>
<text text-anchor="middle" x="1006.7901" y="-284.3" font-family="Times,serif" font-size="14.00" fill="#000000">PostStorageSerivce</text>
</g>
</g>
</svg>
